<?xml version="1.0" encoding="UTF-8" standalone="no"?>
<!DOCTYPE svg PUBLIC "-//W3C//DTD SVG 1.1//EN" "http://www.w3.org/Graphics/SVG/1.1/DTD/svg11.dtd">
<svg width="100%" height="100%" viewBox="0 0 128 128" version="1.1" xmlns="http://www.w3.org/2000/svg" xmlns:xlink="http://www.w3.org/1999/xlink" xml:space="preserve" xmlns:serif="http://www.serif.com/" style="fill-rule:evenodd;clip-rule:evenodd;stroke-linecap:round;stroke-linejoin:round;stroke-miterlimit:1;">
    <g transform="matrix(1,0,0,1.053333,1,-0.213333)">
        <path d="M98,4L98,79L11,79L11,15.392C11,12.371 12.264,9.473 14.515,7.337C16.765,5.2 19.817,4 23,4C46.864,4 98,4 98,4Z" style="fill:rgb(184,211,209);"/>
    </g>
    <g transform="matrix(1.023529,0,0,1.043478,5.858824,-4.652174)">
        <rect x="6" y="84" width="85" height="23" style="fill:white;"/>
    </g>
    <g transform="matrix(1,0,0,1.040404,1,-0.161616)">
        <path d="M50,4L23,4C19.817,4 16.765,5.215 14.515,7.378C12.264,9.541 11,12.475 11,15.534C11,34.597 11,72.459 11,91.5C11,97.851 16.357,103 22.964,103C46.813,103 98,103 98,103L98,67" style="fill:none;stroke:black;stroke-width:7.84px;"/>
    </g>
    <g transform="matrix(1,0,0,1.025,-15,-2.075)">
        <path d="M42,83L42,123L54,114L66,123L66,83" style="fill:rgb(184,192,211);stroke:black;stroke-width:7.9px;"/>
    </g>
    <g transform="matrix(1,0,-0,0.561404,1,35.842105)">
        <path d="M98,84L23,84C19.817,84 16.765,86.252 14.515,90.261C12.264,94.269 11,99.706 11,105.375C11,105.375 11,105.375 11,105.375" style="fill:none;stroke:black;stroke-width:9.87px;"/>
    </g>
    <g transform="matrix(0.938776,0,0,0.938776,3.918367,-4.44898)">
        <circle cx="88.5" cy="33.5" r="24.5" style="fill:white;stroke:black;stroke-width:8.52px;"/>
    </g>
    <g transform="matrix(1.03005,0.030527,0.030527,1.031012,-3.392743,-4.46249)">
        <path d="M102.879,42.623L119,59" style="fill:none;stroke:black;stroke-width:7.54px;"/>
    </g>
</svg>
